<svg version="1.2" xmlns="http://www.w3.org/2000/svg" viewBox="0 0 74 74" width="74" height="74">
	<title>dropDown</title>
	<style>
		.s0 { fill: #686e75 } 
	</style>
	<path class="s0" d="m22.3 22q1.9 2 3.7 4 2.6 2.8 5.2 5.5 1.2 1.3 2.5 2.7c2.5 2.5 2.5 2.5 6.3-0.2 1.7-1.6 1.7-1.6 3.3-3.4 0.9-0.9 0.9-0.9 1.8-1.9q1.8-2 3.7-4.1c4.5-4.8 4.5-4.8 8-3.7q1.1 1 2.2 2.1c1.5 1.2 1.5 1.2 2.9 2.4 2.1 2.6 2.1 2.6 0.1 6.6-3.3 3.7-6.7 7.2-10.2 10.7q-2.5 2.5-5 5.1-1.6 1.7-3.2 3.3c-1.5 1.5-1.5 1.5-3 3-2.6 1.9-2.6 1.9-6.6-0.1-3.7-3.3-7.2-6.7-10.7-10.2q-2.5-2.5-5.1-5-1.7-1.6-3.3-3.2-1.5-1.5-3-3c-1.9-2.6-1.9-2.6 0.1-6.6 5.4-7 5.4-7 10.3-4z"/>
</svg>